{
	"patcher" : 	{
		"fileversion" : 1,
		"appversion" : 		{
			"major" : 8,
			"minor" : 1,
			"revision" : 3,
			"architecture" : "x64",
			"modernui" : 1
		}
,
		"classnamespace" : "box",
		"rect" : [ 235.0, 165.0, 1469.0, 841.0 ],
		"bglocked" : 0,
		"openinpresentation" : 0,
		"default_fontsize" : 12.0,
		"default_fontface" : 0,
		"default_fontname" : "Arial",
		"gridonopen" : 1,
		"gridsize" : [ 15.0, 15.0 ],
		"gridsnaponopen" : 1,
		"objectsnaponopen" : 1,
		"statusbarvisible" : 2,
		"toolbarvisible" : 1,
		"lefttoolbarpinned" : 0,
		"toptoolbarpinned" : 0,
		"righttoolbarpinned" : 0,
		"bottomtoolbarpinned" : 0,
		"toolbars_unpinned_last_save" : 0,
		"tallnewobj" : 0,
		"boxanimatetime" : 200,
		"enablehscroll" : 1,
		"enablevscroll" : 1,
		"devicewidth" : 0.0,
		"description" : "",
		"digest" : "",
		"tags" : "",
		"style" : "",
		"subpatcher_template" : "",
		"boxes" : [ 			{
				"box" : 				{
					"id" : "obj-34",
					"linecount" : 2,
					"maxclass" : "comment",
					"numinlets" : 1,
					"numoutlets" : 0,
					"patching_rect" : [ 130.0, 39.0, 150.0, 34.0 ],
					"text" : "MIDI setup: set to ONLY Focusrite outputs!!!"
				}

			}
, 			{
				"box" : 				{
					"id" : "obj-4",
					"maxclass" : "newobj",
					"numinlets" : 1,
					"numoutlets" : 3,
					"outlettype" : [ "", "", "" ],
					"patching_rect" : [ 665.919698596000671, 337.599195718765259, 51.0, 22.0 ],
					"text" : "unjoin 1"
				}

			}
, 			{
				"box" : 				{
					"id" : "obj-16",
					"maxclass" : "number",
					"numinlets" : 1,
					"numoutlets" : 2,
					"outlettype" : [ "", "bang" ],
					"parameter_enable" : 0,
					"patching_rect" : [ 808.477843523025513, 280.427974104881287, 50.0, 22.0 ]
				}

			}
, 			{
				"box" : 				{
					"coll_data" : 					{
						"count" : 12,
						"data" : [ 							{
								"key" : 1,
								"value" : [ "midi4_1.mid" ]
							}
, 							{
								"key" : 2,
								"value" : [ "midi4_2.mid" ]
							}
, 							{
								"key" : 3,
								"value" : [ "midi4_3.mid" ]
							}
, 							{
								"key" : 4,
								"value" : [ "midi4_4.mid" ]
							}
, 							{
								"key" : 5,
								"value" : [ "midi4_5.mid" ]
							}
, 							{
								"key" : 6,
								"value" : [ "midi4_6.mid" ]
							}
, 							{
								"key" : 7,
								"value" : [ "midi4_1.mid" ]
							}
, 							{
								"key" : 8,
								"value" : [ "midi4_2.mid" ]
							}
, 							{
								"key" : 9,
								"value" : [ "midi4_3.mid" ]
							}
, 							{
								"key" : 10,
								"value" : [ "midi4_4.mid" ]
							}
, 							{
								"key" : 11,
								"value" : [ "midi4_5.mid" ]
							}
, 							{
								"key" : 12,
								"value" : [ "midi4_6.mid" ]
							}
 ]
					}
,
					"id" : "obj-30",
					"maxclass" : "newobj",
					"numinlets" : 1,
					"numoutlets" : 4,
					"outlettype" : [ "", "", "", "" ],
					"patching_rect" : [ 564.971799612045288, 362.650615811347961, 95.0, 22.0 ],
					"saved_object_attributes" : 					{
						"embed" : 10,
						"precision" : 6
					}
,
					"text" : "coll @embed 10"
				}

			}
, 			{
				"box" : 				{
					"coll_data" : 					{
						"count" : 12,
						"data" : [ 							{
								"key" : 1,
								"value" : [ "midi3_1.mid" ]
							}
, 							{
								"key" : 2,
								"value" : [ "midi3_2.mid" ]
							}
, 							{
								"key" : 3,
								"value" : [ "midi3_3.mid" ]
							}
, 							{
								"key" : 4,
								"value" : [ "midi3_4.mid" ]
							}
, 							{
								"key" : 5,
								"value" : [ "midi3_5.mid" ]
							}
, 							{
								"key" : 6,
								"value" : [ "midi3_6.mid" ]
							}
, 							{
								"key" : 7,
								"value" : [ "midi3_1.mid" ]
							}
, 							{
								"key" : 8,
								"value" : [ "midi3_2.mid" ]
							}
, 							{
								"key" : 9,
								"value" : [ "midi3_3.mid" ]
							}
, 							{
								"key" : 10,
								"value" : [ "midi3_4.mid" ]
							}
, 							{
								"key" : 11,
								"value" : [ "midi3_5.mid" ]
							}
, 							{
								"key" : 12,
								"value" : [ "midi3_6.mid" ]
							}
 ]
					}
,
					"id" : "obj-24",
					"maxclass" : "newobj",
					"numinlets" : 1,
					"numoutlets" : 4,
					"outlettype" : [ "", "", "", "" ],
					"patching_rect" : [ 460.240980863571167, 383.629269361495972, 89.0, 22.0 ],
					"saved_object_attributes" : 					{
						"embed" : 9,
						"precision" : 6
					}
,
					"text" : "coll @embed 9"
				}

			}
, 			{
				"box" : 				{
					"coll_data" : 					{
						"count" : 12,
						"data" : [ 							{
								"key" : 1,
								"value" : [ "midi2_1.mid" ]
							}
, 							{
								"key" : 2,
								"value" : [ "midi2_2.mid" ]
							}
, 							{
								"key" : 3,
								"value" : [ "midi2_3.mid" ]
							}
, 							{
								"key" : 4,
								"value" : [ "midi2_4.mid" ]
							}
, 							{
								"key" : 5,
								"value" : [ "midi2_5.mid" ]
							}
, 							{
								"key" : 6,
								"value" : [ "midi2_6.mid" ]
							}
, 							{
								"key" : 7,
								"value" : [ "midi2_7.mid" ]
							}
, 							{
								"key" : 8,
								"value" : [ "midi2_1.mid" ]
							}
, 							{
								"key" : 9,
								"value" : [ "midi2_2.mid" ]
							}
, 							{
								"key" : 10,
								"value" : [ "midi2_3.mid" ]
							}
, 							{
								"key" : 11,
								"value" : [ "midi2_4.mid" ]
							}
, 							{
								"key" : 12,
								"value" : [ "midi2_5.mid" ]
							}
 ]
					}
,
					"id" : "obj-23",
					"maxclass" : "newobj",
					"numinlets" : 1,
					"numoutlets" : 4,
					"outlettype" : [ "", "", "", "" ],
					"patching_rect" : [ 431.379535436630249, 347.484689712524414, 89.0, 22.0 ],
					"saved_object_attributes" : 					{
						"embed" : 8,
						"precision" : 6
					}
,
					"text" : "coll @embed 8"
				}

			}
, 			{
				"box" : 				{
					"id" : "obj-22",
					"maxclass" : "newobj",
					"numinlets" : 2,
					"numoutlets" : 4,
					"outlettype" : [ "", "", "", "" ],
					"patching_rect" : [ 469.879535436630249, 292.771095156669617, 50.5, 22.0 ],
					"text" : "gate 4"
				}

			}
, 			{
				"box" : 				{
					"id" : "obj-20",
					"maxclass" : "button",
					"numinlets" : 1,
					"numoutlets" : 1,
					"outlettype" : [ "bang" ],
					"parameter_enable" : 0,
					"patching_rect" : [ 944.578348159790039, 233.734948396682739, 24.0, 24.0 ]
				}

			}
, 			{
				"box" : 				{
					"id" : "obj-15",
					"maxclass" : "newobj",
					"numinlets" : 2,
					"numoutlets" : 1,
					"outlettype" : [ "int" ],
					"patching_rect" : [ 865.060272932052612, 304.427974104881287, 29.5, 22.0 ],
					"text" : "+ 1"
				}

			}
, 			{
				"box" : 				{
					"id" : "obj-12",
					"maxclass" : "newobj",
					"numinlets" : 2,
					"numoutlets" : 4,
					"outlettype" : [ "", "", "", "" ],
					"patching_rect" : [ 808.477843523025513, 397.944732785224915, 50.5, 22.0 ],
					"text" : "gate 4"
				}

			}
, 			{
				"box" : 				{
					"id" : "obj-6",
					"maxclass" : "number",
					"numinlets" : 1,
					"numoutlets" : 2,
					"outlettype" : [ "", "bang" ],
					"parameter_enable" : 0,
					"patching_rect" : [ 737.349424839019775, 317.387128591537476, 50.0, 22.0 ]
				}

			}
, 			{
				"box" : 				{
					"id" : "obj-9",
					"maxclass" : "newobj",
					"numinlets" : 5,
					"numoutlets" : 4,
					"outlettype" : [ "int", "", "", "int" ],
					"patching_rect" : [ 745.487323403358459, 218.834523797035217, 69.0, 22.0 ],
					"text" : "counter 1 4"
				}

			}
, 			{
				"box" : 				{
					"id" : "obj-79",
					"maxclass" : "newobj",
					"numinlets" : 2,
					"numoutlets" : 1,
					"outlettype" : [ "int" ],
					"patching_rect" : [ 865.060272932052612, 267.520457327365875, 59.0, 22.0 ],
					"text" : "random 4"
				}

			}
, 			{
				"box" : 				{
					"id" : "obj-77",
					"maxclass" : "number",
					"numinlets" : 1,
					"numoutlets" : 2,
					"outlettype" : [ "", "bang" ],
					"parameter_enable" : 0,
					"patching_rect" : [ 969.879553914070129, 288.563467741012573, 50.0, 22.0 ]
				}

			}
, 			{
				"box" : 				{
					"id" : "obj-72",
					"maxclass" : "newobj",
					"numinlets" : 2,
					"numoutlets" : 1,
					"outlettype" : [ "int" ],
					"patching_rect" : [ 853.411578774452096, 590.803407549858093, 29.5, 22.0 ],
					"text" : "int"
				}

			}
, 			{
				"box" : 				{
					"id" : "obj-61",
					"maxclass" : "message",
					"numinlets" : 2,
					"numoutlets" : 1,
					"outlettype" : [ "" ],
					"patching_rect" : [ 737.349424839019775, 107.228919625282288, 32.0, 22.0 ],
					"text" : "start"
				}

			}
, 			{
				"box" : 				{
					"id" : "obj-59",
					"maxclass" : "newobj",
					"numinlets" : 2,
					"numoutlets" : 2,
					"outlettype" : [ "bang", "" ],
					"patching_rect" : [ 634.939782500267029, 186.369252681732178, 50.0, 22.0 ],
					"text" : "select 0"
				}

			}
, 			{
				"box" : 				{
					"id" : "obj-50",
					"maxclass" : "message",
					"numinlets" : 2,
					"numoutlets" : 1,
					"outlettype" : [ "" ],
					"patching_rect" : [ 672.289181470870972, 218.834523797035217, 31.0, 22.0 ],
					"text" : "next"
				}

			}
, 			{
				"box" : 				{
					"coll_data" : 					{
						"count" : 4,
						"data" : [ 							{
								"key" : 1,
								"value" : [ 45 ]
							}
, 							{
								"key" : 2,
								"value" : [ 43 ]
							}
, 							{
								"key" : 3,
								"value" : [ 41 ]
							}
, 							{
								"key" : 4,
								"value" : [ 45 ]
							}
 ]
					}
,
					"id" : "obj-38",
					"maxclass" : "newobj",
					"numinlets" : 1,
					"numoutlets" : 4,
					"outlettype" : [ "", "", "", "" ],
					"patching_rect" : [ 999.807264566421509, 449.029035329818726, 89.0, 22.0 ],
					"saved_object_attributes" : 					{
						"embed" : 7,
						"precision" : 6
					}
,
					"text" : "coll @embed 7"
				}

			}
, 			{
				"box" : 				{
					"coll_data" : 					{
						"count" : 4,
						"data" : [ 							{
								"key" : 1,
								"value" : [ 43 ]
							}
, 							{
								"key" : 2,
								"value" : [ 43 ]
							}
, 							{
								"key" : 3,
								"value" : [ 41 ]
							}
, 							{
								"key" : 4,
								"value" : [ 45 ]
							}
 ]
					}
,
					"id" : "obj-37",
					"maxclass" : "newobj",
					"numinlets" : 1,
					"numoutlets" : 4,
					"outlettype" : [ "", "", "", "" ],
					"patching_rect" : [ 905.590391397476196, 449.029035329818726, 89.0, 22.0 ],
					"saved_object_attributes" : 					{
						"embed" : 6,
						"precision" : 6
					}
,
					"text" : "coll @embed 6"
				}

			}
, 			{
				"box" : 				{
					"coll_data" : 					{
						"count" : 4,
						"data" : [ 							{
								"key" : 1,
								"value" : [ 45 ]
							}
, 							{
								"key" : 2,
								"value" : [ 41 ]
							}
, 							{
								"key" : 3,
								"value" : [ 43 ]
							}
, 							{
								"key" : 4,
								"value" : [ 43 ]
							}
 ]
					}
,
					"id" : "obj-35",
					"maxclass" : "newobj",
					"numinlets" : 1,
					"numoutlets" : 4,
					"outlettype" : [ "", "", "", "" ],
					"patching_rect" : [ 808.477843523025513, 443.727867007255554, 89.0, 22.0 ],
					"saved_object_attributes" : 					{
						"embed" : 5,
						"precision" : 6
					}
,
					"text" : "coll @embed 5"
				}

			}
, 			{
				"box" : 				{
					"id" : "obj-17",
					"maxclass" : "message",
					"numinlets" : 2,
					"numoutlets" : 1,
					"outlettype" : [ "" ],
					"patching_rect" : [ 804.969907879829407, 85.060139060020447, 29.5, 22.0 ],
					"text" : "1"
				}

			}
, 			{
				"box" : 				{
					"id" : "obj-8",
					"maxclass" : "newobj",
					"numinlets" : 5,
					"numoutlets" : 4,
					"outlettype" : [ "int", "", "", "int" ],
					"patching_rect" : [ 860.060272932052612, 208.087027447223647, 75.0, 22.0 ],
					"text" : "counter 1 16"
				}

			}
, 			{
				"box" : 				{
					"coll_data" : 					{
						"count" : 4,
						"data" : [ 							{
								"key" : 1,
								"value" : [ 45 ]
							}
, 							{
								"key" : 2,
								"value" : [ 41 ]
							}
, 							{
								"key" : 3,
								"value" : [ 43 ]
							}
, 							{
								"key" : 4,
								"value" : [ 45 ]
							}
 ]
					}
,
					"id" : "obj-3",
					"maxclass" : "newobj",
					"numinlets" : 1,
					"numoutlets" : 4,
					"outlettype" : [ "", "", "", "" ],
					"patching_rect" : [ 710.887478470802307, 443.727867007255554, 89.0, 22.0 ],
					"saved_object_attributes" : 					{
						"embed" : 4,
						"precision" : 6
					}
,
					"text" : "coll @embed 4"
				}

			}
, 			{
				"box" : 				{
					"id" : "obj-1",
					"maxclass" : "newobj",
					"numinlets" : 2,
					"numoutlets" : 2,
					"outlettype" : [ "", "" ],
					"patching_rect" : [ 356.806520462036133, 386.747002243995667, 77.0, 22.0 ],
					"text" : "route symbol"
				}

			}
, 			{
				"box" : 				{
					"id" : "obj-204",
					"maxclass" : "message",
					"numinlets" : 2,
					"numoutlets" : 1,
					"outlettype" : [ "" ],
					"patching_rect" : [ 452.307665348052979, 453.493955969810486, 73.0, 22.0 ],
					"text" : "midi2_1.mid"
				}

			}
, 			{
				"box" : 				{
					"id" : "obj-200",
					"maxclass" : "number",
					"numinlets" : 1,
					"numoutlets" : 2,
					"outlettype" : [ "", "bang" ],
					"parameter_enable" : 0,
					"patching_rect" : [ 346.940191149711609, 254.216876864433289, 50.0, 22.0 ]
				}

			}
, 			{
				"box" : 				{
					"id" : "obj-197",
					"maxclass" : "newobj",
					"numinlets" : 2,
					"numoutlets" : 1,
					"outlettype" : [ "int" ],
					"patching_rect" : [ 371.264352321624756, 228.827257454395294, 29.5, 22.0 ],
					"text" : "+ 1"
				}

			}
, 			{
				"box" : 				{
					"coll_data" : 					{
						"count" : 12,
						"data" : [ 							{
								"key" : 1,
								"value" : [ "midi1_1.mid" ]
							}
, 							{
								"key" : 2,
								"value" : [ "midi1_2.mid" ]
							}
, 							{
								"key" : 3,
								"value" : [ "midi1_3.mid" ]
							}
, 							{
								"key" : 4,
								"value" : [ "midi1_4.mid" ]
							}
, 							{
								"key" : 5,
								"value" : [ "midi1_5.mid" ]
							}
, 							{
								"key" : 6,
								"value" : [ "midi1_6.mid" ]
							}
, 							{
								"key" : 7,
								"value" : [ "midi1_7.mid" ]
							}
, 							{
								"key" : 8,
								"value" : [ "midi1_8.mid" ]
							}
, 							{
								"key" : 9,
								"value" : [ "midi1_9.mid" ]
							}
, 							{
								"key" : 10,
								"value" : [ "midi1_10.mid" ]
							}
, 							{
								"key" : 11,
								"value" : [ "midi1_11.mid" ]
							}
, 							{
								"key" : 12,
								"value" : [ "midi1_12.mid" ]
							}
 ]
					}
,
					"id" : "obj-192",
					"maxclass" : "newobj",
					"numinlets" : 1,
					"numoutlets" : 4,
					"outlettype" : [ "", "", "", "" ],
					"patching_rect" : [ 335.325733184814453, 323.484689712524414, 89.0, 22.0 ],
					"saved_object_attributes" : 					{
						"embed" : 3,
						"precision" : 6
					}
,
					"text" : "coll @embed 3"
				}

			}
, 			{
				"box" : 				{
					"id" : "obj-185",
					"maxclass" : "newobj",
					"numinlets" : 5,
					"numoutlets" : 5,
					"outlettype" : [ "bang", "bang", "bang", "bang", "" ],
					"patching_rect" : [ 416.757301688194275, 133.53442370891571, 80.0, 22.0 ],
					"text" : "select 1 2 3 4"
				}

			}
, 			{
				"box" : 				{
					"id" : "obj-184",
					"maxclass" : "newobj",
					"numinlets" : 1,
					"numoutlets" : 3,
					"outlettype" : [ "", "", "" ],
					"patching_rect" : [ 435.757301688194275, 87.234941005706787, 51.0, 22.0 ],
					"text" : "unjoin 1"
				}

			}
, 			{
				"box" : 				{
					"coll_data" : 					{
						"count" : 4,
						"data" : [ 							{
								"key" : 1,
								"value" : [ 1 ]
							}
, 							{
								"key" : 2,
								"value" : [ 2 ]
							}
, 							{
								"key" : 3,
								"value" : [ 3 ]
							}
, 							{
								"key" : 4,
								"value" : [ 4 ]
							}
 ]
					}
,
					"id" : "obj-183",
					"maxclass" : "newobj",
					"numinlets" : 1,
					"numoutlets" : 4,
					"outlettype" : [ "", "", "", "" ],
					"patching_rect" : [ 619.652536988258362, 285.099586486816406, 89.0, 22.0 ],
					"saved_object_attributes" : 					{
						"embed" : 2,
						"precision" : 6
					}
,
					"text" : "coll @embed 2"
				}

			}
, 			{
				"box" : 				{
					"id" : "obj-173",
					"maxclass" : "newobj",
					"numinlets" : 1,
					"numoutlets" : 3,
					"outlettype" : [ "", "", "" ],
					"patching_rect" : [ 853.411578774452096, 551.476117491722107, 51.0, 22.0 ],
					"text" : "unjoin 1"
				}

			}
, 			{
				"box" : 				{
					"id" : "obj-82",
					"maxclass" : "toggle",
					"numinlets" : 1,
					"numoutlets" : 1,
					"outlettype" : [ "int" ],
					"parameter_enable" : 0,
					"patching_rect" : [ 553.806520462036133, 28.109755516052246, 24.0, 24.0 ]
				}

			}
, 			{
				"box" : 				{
					"id" : "obj-76",
					"maxclass" : "message",
					"numinlets" : 2,
					"numoutlets" : 1,
					"outlettype" : [ "" ],
					"patching_rect" : [ 597.721799612045288, 186.369252681732178, 29.5, 22.0 ],
					"text" : "tick"
				}

			}
, 			{
				"box" : 				{
					"id" : "obj-70",
					"maxclass" : "newobj",
					"numinlets" : 3,
					"numoutlets" : 0,
					"patching_rect" : [ 853.411578774452096, 689.675369381904602, 49.0, 22.0 ],
					"text" : "noteout"
				}

			}
, 			{
				"box" : 				{
					"id" : "obj-66",
					"maxclass" : "newobj",
					"numinlets" : 4,
					"numoutlets" : 1,
					"outlettype" : [ "int" ],
					"patching_rect" : [ 597.721799612045288, 127.228815317153931, 92.0, 22.0 ],
					"text" : "tempo 100 1 96"
				}

			}
, 			{
				"box" : 				{
					"id" : "obj-65",
					"maxclass" : "newobj",
					"numinlets" : 3,
					"numoutlets" : 2,
					"outlettype" : [ "float", "float" ],
					"patching_rect" : [ 853.411578774452096, 626.245997309684753, 108.0, 22.0 ],
					"text" : "makenote 80 2000"
				}

			}
, 			{
				"box" : 				{
					"id" : "obj-53",
					"maxclass" : "newobj",
					"numinlets" : 2,
					"numoutlets" : 1,
					"outlettype" : [ "int" ],
					"patching_rect" : [ 335.325733184814453, 193.533318042755127, 66.0, 22.0 ],
					"text" : "random 12"
				}

			}
, 			{
				"box" : 				{
					"id" : "obj-44",
					"maxclass" : "comment",
					"numinlets" : 1,
					"numoutlets" : 0,
					"patching_rect" : [ 487.139872193336487, 224.072922484874709, 67.0, 20.0 ],
					"text" : "change file"
				}

			}
, 			{
				"box" : 				{
					"id" : "obj-42",
					"maxclass" : "message",
					"numinlets" : 2,
					"numoutlets" : 1,
					"outlettype" : [ "" ],
					"patching_rect" : [ 230.806520462036133, 510.15118944644928, 111.0, 22.0 ],
					"text" : "read midi2_1.mid"
				}

			}
, 			{
				"box" : 				{
					"id" : "obj-29",
					"maxclass" : "newobj",
					"numinlets" : 1,
					"numoutlets" : 1,
					"outlettype" : [ "" ],
					"patching_rect" : [ 356.806520462036133, 449.684099674224854, 80.0, 22.0 ],
					"text" : "prepend read"
				}

			}
, 			{
				"box" : 				{
					"id" : "obj-10",
					"maxclass" : "button",
					"numinlets" : 1,
					"numoutlets" : 1,
					"outlettype" : [ "bang" ],
					"parameter_enable" : 0,
					"patching_rect" : [ 149.344663977622986, 258.224721491336823, 49.3333340883255, 49.3333340883255 ]
				}

			}
, 			{
				"box" : 				{
					"fontface" : 0,
					"fontname" : "Arial",
					"fontsize" : 11.595186999999999,
					"id" : "obj-18",
					"maxclass" : "comment",
					"numinlets" : 1,
					"numoutlets" : 0,
					"patching_rect" : [ 60.806520462036133, 630.076274156570435, 63.0, 20.0 ],
					"text" : "Recording"
				}

			}
, 			{
				"box" : 				{
					"fontface" : 0,
					"fontname" : "Arial",
					"fontsize" : 11.595186999999999,
					"id" : "obj-11",
					"maxclass" : "comment",
					"numinlets" : 1,
					"numoutlets" : 0,
					"patching_rect" : [ 364.806520462036133, 529.076274156570435, 90.0, 20.0 ],
					"text" : "Sequencing"
				}

			}
, 			{
				"box" : 				{
					"fontface" : 0,
					"fontname" : "Arial",
					"fontsize" : 11.595186999999999,
					"id" : "obj-13",
					"maxclass" : "comment",
					"numinlets" : 1,
					"numoutlets" : 0,
					"patching_rect" : [ 526.806520462036133, 529.076274156570435, 90.0, 20.0 ],
					"text" : "File Handling"
				}

			}
, 			{
				"box" : 				{
					"bgcolor" : [ 0.91328, 0.91328, 0.91328, 0.75 ],
					"blinkcolor" : [ 1.0, 0.890196, 0.090196, 1.0 ],
					"id" : "obj-14",
					"maxclass" : "button",
					"numinlets" : 1,
					"numoutlets" : 1,
					"outlettype" : [ "bang" ],
					"outlinecolor" : [ 0.71328, 0.71328, 0.71328, 1.0 ],
					"parameter_enable" : 0,
					"patching_rect" : [ 490.467536926269531, 627.906778812408447, 20.0, 20.0 ]
				}

			}
, 			{
				"box" : 				{
					"id" : "obj-19",
					"int" : 1,
					"maxclass" : "gswitch2",
					"numinlets" : 2,
					"numoutlets" : 2,
					"outlettype" : [ "", "" ],
					"parameter_enable" : 0,
					"patching_rect" : [ 490.806520462036133, 744.076274156570435, 39.0, 32.0 ]
				}

			}
, 			{
				"box" : 				{
					"fontface" : 0,
					"fontname" : "Arial",
					"fontsize" : 11.595186999999999,
					"id" : "obj-26",
					"maxclass" : "comment",
					"numinlets" : 1,
					"numoutlets" : 0,
					"patching_rect" : [ 520.806520462036133, 699.076274156570435, 90.0, 20.0 ],
					"text" : "Loop Playback"
				}

			}
, 			{
				"box" : 				{
					"bgcolor" : [ 1.0, 1.0, 1.0, 1.0 ],
					"checkedcolor" : [ 0.0, 0.0, 0.0, 1.0 ],
					"id" : "obj-27",
					"maxclass" : "toggle",
					"numinlets" : 1,
					"numoutlets" : 1,
					"outlettype" : [ "int" ],
					"parameter_enable" : 0,
					"patching_rect" : [ 490.806520462036133, 699.076274156570435, 20.0, 20.0 ],
					"uncheckedcolor" : [ 0.0, 0.0, 0.0, 0.0 ]
				}

			}
, 			{
				"box" : 				{
					"bgcolor" : [ 0.867, 0.867, 0.867, 1.0 ],
					"bgfillcolor_angle" : 270.0,
					"bgfillcolor_autogradient" : 0.79,
					"bgfillcolor_color" : [ 0.290196, 0.309804, 0.301961, 1.0 ],
					"bgfillcolor_color1" : [ 0.867, 0.867, 0.867, 1.0 ],
					"bgfillcolor_color2" : [ 0.867, 0.867, 0.867, 1.0 ],
					"bgfillcolor_proportion" : 0.39,
					"bgfillcolor_type" : "gradient",
					"fontface" : 0,
					"fontname" : "Arial",
					"fontsize" : 11.595186999999999,
					"gradient" : 0,
					"id" : "obj-28",
					"maxclass" : "message",
					"numinlets" : 2,
					"numoutlets" : 1,
					"outlettype" : [ "" ],
					"patching_rect" : [ 507.806520462036133, 559.076274156570435, 50.0, 22.0 ],
					"text" : "write",
					"textcolor" : [ 0.0, 0.0, 0.0, 1.0 ]
				}

			}
, 			{
				"box" : 				{
					"bgcolor" : [ 0.867, 0.867, 0.867, 1.0 ],
					"bgfillcolor_angle" : 270.0,
					"bgfillcolor_autogradient" : 0.79,
					"bgfillcolor_color" : [ 0.290196, 0.309804, 0.301961, 1.0 ],
					"bgfillcolor_color1" : [ 0.867, 0.867, 0.867, 1.0 ],
					"bgfillcolor_color2" : [ 0.867, 0.867, 0.867, 1.0 ],
					"bgfillcolor_proportion" : 0.39,
					"bgfillcolor_type" : "gradient",
					"fontface" : 0,
					"fontname" : "Arial",
					"fontsize" : 11.595186999999999,
					"gradient" : 0,
					"id" : "obj-32",
					"maxclass" : "message",
					"numinlets" : 2,
					"numoutlets" : 1,
					"outlettype" : [ "" ],
					"patching_rect" : [ 577.139854907989502, 559.076274156570435, 50.0, 22.0 ],
					"text" : "read",
					"textcolor" : [ 0.0, 0.0, 0.0, 1.0 ]
				}

			}
, 			{
				"box" : 				{
					"bgcolor" : [ 1.0, 1.0, 1.0, 1.0 ],
					"color" : [ 0.8, 0.84, 0.71, 1.0 ],
					"fontface" : 0,
					"fontname" : "Arial",
					"fontsize" : 11.595186999999999,
					"id" : "obj-33",
					"maxclass" : "newobj",
					"numinlets" : 1,
					"numoutlets" : 1,
					"outlettype" : [ "int" ],
					"patching_rect" : [ 129.806520462036133, 630.076274156570435, 46.0, 22.0 ],
					"text" : "midiin",
					"textcolor" : [ 0.0, 0.0, 0.0, 1.0 ]
				}

			}
, 			{
				"box" : 				{
					"allowdrag" : 0,
					"bgcolor" : [ 1.0, 1.0, 1.0, 1.0 ],
					"bgfillcolor_angle" : 270.0,
					"bgfillcolor_color" : [ 1.0, 1.0, 1.0, 1.0 ],
					"bgfillcolor_color1" : [ 0.376471, 0.384314, 0.4, 1.0 ],
					"bgfillcolor_color2" : [ 0.290196, 0.309804, 0.301961, 1.0 ],
					"bgfillcolor_proportion" : 0.39,
					"bgfillcolor_type" : "color",
					"fontsize" : 11.595186999999999,
					"id" : "obj-36",
					"items" : "Focusrite USB MIDI",
					"maxclass" : "umenu",
					"numinlets" : 1,
					"numoutlets" : 3,
					"outlettype" : [ "int", "", "" ],
					"parameter_enable" : 0,
					"patching_rect" : [ 88.806520462036133, 589.076274156570435, 100.0, 22.0 ],
					"textcolor" : [ 0.15, 0.15, 0.15, 1.0 ]
				}

			}
, 			{
				"box" : 				{
					"bgcolor" : [ 1.0, 1.0, 1.0, 1.0 ],
					"color" : [ 0.8, 0.84, 0.71, 1.0 ],
					"fontface" : 0,
					"fontname" : "Arial",
					"fontsize" : 11.595186999999999,
					"id" : "obj-40",
					"maxclass" : "newobj",
					"numinlets" : 2,
					"numoutlets" : 1,
					"outlettype" : [ "" ],
					"patching_rect" : [ 88.806520462036133, 561.076274156570435, 60.0, 22.0 ],
					"text" : "midiinfo",
					"textcolor" : [ 0.0, 0.0, 0.0, 1.0 ]
				}

			}
, 			{
				"box" : 				{
					"bgcolor" : [ 1.0, 1.0, 1.0, 1.0 ],
					"color" : [ 0.8, 0.84, 0.71, 1.0 ],
					"fontface" : 0,
					"fontname" : "Arial",
					"fontsize" : 11.595186999999999,
					"id" : "obj-41",
					"maxclass" : "newobj",
					"numinlets" : 1,
					"numoutlets" : 1,
					"outlettype" : [ "" ],
					"patching_rect" : [ 129.806520462036133, 533.076274156570435, 75.0, 22.0 ],
					"text" : "loadmess 1",
					"textcolor" : [ 0.0, 0.0, 0.0, 1.0 ]
				}

			}
, 			{
				"box" : 				{
					"bgcolor" : [ 0.867, 0.867, 0.867, 1.0 ],
					"bgfillcolor_angle" : 270.0,
					"bgfillcolor_autogradient" : 0.79,
					"bgfillcolor_color" : [ 0.290196, 0.309804, 0.301961, 1.0 ],
					"bgfillcolor_color1" : [ 0.867, 0.867, 0.867, 1.0 ],
					"bgfillcolor_color2" : [ 0.867, 0.867, 0.867, 1.0 ],
					"bgfillcolor_proportion" : 0.39,
					"bgfillcolor_type" : "gradient",
					"fontface" : 0,
					"fontname" : "Arial",
					"fontsize" : 11.595186999999999,
					"gradient" : 0,
					"id" : "obj-43",
					"maxclass" : "message",
					"numinlets" : 2,
					"numoutlets" : 1,
					"outlettype" : [ "" ],
					"patching_rect" : [ 393.806520462036133, 562.076274156570435, 50.0, 22.0 ],
					"text" : "stop",
					"textcolor" : [ 0.0, 0.0, 0.0, 1.0 ]
				}

			}
, 			{
				"box" : 				{
					"bgcolor" : [ 0.533333, 0.870588, 0.635294, 1.0 ],
					"bgfillcolor_angle" : 270.0,
					"bgfillcolor_autogradient" : 0.79,
					"bgfillcolor_color" : [ 0.290196, 0.309804, 0.301961, 1.0 ],
					"bgfillcolor_color1" : [ 0.533333, 0.870588, 0.635294, 1.0 ],
					"bgfillcolor_color2" : [ 0.867, 0.867, 0.867, 1.0 ],
					"bgfillcolor_proportion" : 0.39,
					"bgfillcolor_type" : "gradient",
					"fontface" : 0,
					"fontname" : "Arial",
					"fontsize" : 11.595186999999999,
					"gradient" : 0,
					"id" : "obj-45",
					"maxclass" : "message",
					"numinlets" : 2,
					"numoutlets" : 1,
					"outlettype" : [ "" ],
					"patching_rect" : [ 201.577610850334167, 463.750969111919403, 45.0, 22.0 ],
					"text" : "start -1",
					"textcolor" : [ 0.0, 0.0, 0.0, 1.0 ]
				}

			}
, 			{
				"box" : 				{
					"bgcolor" : [ 0.894118, 0.494118, 0.494118, 1.0 ],
					"bgfillcolor_angle" : 270.0,
					"bgfillcolor_autogradient" : 0.79,
					"bgfillcolor_color" : [ 0.290196, 0.309804, 0.301961, 1.0 ],
					"bgfillcolor_color1" : [ 0.894118, 0.494118, 0.494118, 1.0 ],
					"bgfillcolor_color2" : [ 0.867, 0.867, 0.867, 1.0 ],
					"bgfillcolor_proportion" : 0.39,
					"bgfillcolor_type" : "gradient",
					"fontface" : 0,
					"fontname" : "Arial",
					"fontsize" : 11.595186999999999,
					"gradient" : 0,
					"id" : "obj-46",
					"maxclass" : "message",
					"numinlets" : 2,
					"numoutlets" : 1,
					"outlettype" : [ "" ],
					"patching_rect" : [ 273.806520462036133, 562.076274156570435, 50.0, 22.0 ],
					"text" : "record",
					"textcolor" : [ 0.0, 0.0, 0.0, 1.0 ]
				}

			}
, 			{
				"box" : 				{
					"bgcolor" : [ 0.91328, 0.91328, 0.91328, 0.75 ],
					"blinkcolor" : [ 1.0, 0.890196, 0.090196, 1.0 ],
					"id" : "obj-47",
					"maxclass" : "button",
					"numinlets" : 1,
					"numoutlets" : 1,
					"outlettype" : [ "bang" ],
					"outlinecolor" : [ 0.71328, 0.71328, 0.71328, 1.0 ],
					"parameter_enable" : 0,
					"patching_rect" : [ 243.806520462036133, 682.076274156570435, 20.0, 20.0 ]
				}

			}
, 			{
				"box" : 				{
					"bgcolor" : [ 1.0, 1.0, 1.0, 1.0 ],
					"color" : [ 0.8, 0.84, 0.71, 1.0 ],
					"fontface" : 0,
					"fontname" : "Arial",
					"fontsize" : 11.595186999999999,
					"id" : "obj-48",
					"maxclass" : "newobj",
					"numinlets" : 1,
					"numoutlets" : 0,
					"patching_rect" : [ 273.806520462036133, 742.076274156570435, 68.0, 22.0 ],
					"text" : "midiout",
					"textcolor" : [ 0.0, 0.0, 0.0, 1.0 ]
				}

			}
, 			{
				"box" : 				{
					"bgcolor" : [ 1.0, 1.0, 1.0, 1.0 ],
					"color" : [ 0.8, 0.84, 0.71, 1.0 ],
					"fontface" : 0,
					"fontname" : "Arial",
					"fontsize" : 11.595186999999999,
					"id" : "obj-2",
					"maxclass" : "newobj",
					"numinlets" : 1,
					"numoutlets" : 1,
					"outlettype" : [ "int" ],
					"patching_rect" : [ 273.806520462036133, 712.076274156570435, 68.0, 22.0 ],
					"text" : "midiflush",
					"textcolor" : [ 0.0, 0.0, 0.0, 1.0 ]
				}

			}
, 			{
				"box" : 				{
					"bgcolor" : [ 1.0, 1.0, 1.0, 1.0 ],
					"color" : [ 0.8, 0.84, 0.71, 1.0 ],
					"fontface" : 0,
					"fontname" : "Arial",
					"fontsize" : 11.595186999999999,
					"id" : "obj-49",
					"maxclass" : "newobj",
					"numinlets" : 1,
					"numoutlets" : 2,
					"outlettype" : [ "int", "bang" ],
					"patching_rect" : [ 273.806520462036133, 682.076274156570435, 100.0, 22.0 ],
					"text" : "seq",
					"textcolor" : [ 0.0, 0.0, 0.0, 1.0 ]
				}

			}
 ],
		"lines" : [ 			{
				"patchline" : 				{
					"destination" : [ "obj-204", 1 ],
					"midpoints" : [ 366.306520462036133, 430.620479106903076, 515.807665348052979, 430.620479106903076 ],
					"order" : 0,
					"source" : [ "obj-1", 0 ]
				}

			}
, 			{
				"patchline" : 				{
					"destination" : [ "obj-29", 0 ],
					"order" : 1,
					"source" : [ "obj-1", 0 ]
				}

			}
, 			{
				"patchline" : 				{
					"destination" : [ "obj-42", 0 ],
					"midpoints" : [ 158.844663977622986, 408.354622513055801, 240.306520462036133, 408.354622513055801 ],
					"order" : 1,
					"source" : [ "obj-10", 0 ]
				}

			}
, 			{
				"patchline" : 				{
					"destination" : [ "obj-43", 0 ],
					"midpoints" : [ 158.844663977622986, 434.317164868116379, 403.306520462036133, 434.317164868116379 ],
					"order" : 0,
					"source" : [ "obj-10", 0 ]
				}

			}
, 			{
				"patchline" : 				{
					"destination" : [ "obj-45", 0 ],
					"midpoints" : [ 158.844663977622986, 385.154512345790863, 211.077610850334167, 385.154512345790863 ],
					"order" : 2,
					"source" : [ "obj-10", 0 ]
				}

			}
, 			{
				"patchline" : 				{
					"destination" : [ "obj-3", 0 ],
					"midpoints" : [ 817.977843523025513, 431.336299896240234, 720.387478470802307, 431.336299896240234 ],
					"source" : [ "obj-12", 0 ]
				}

			}
, 			{
				"patchline" : 				{
					"destination" : [ "obj-35", 0 ],
					"midpoints" : [ 828.477843523025513, 431.336299896240234, 817.977843523025513, 431.336299896240234 ],
					"source" : [ "obj-12", 1 ]
				}

			}
, 			{
				"patchline" : 				{
					"destination" : [ "obj-37", 0 ],
					"midpoints" : [ 838.977843523025513, 433.98688405752182, 915.090391397476196, 433.98688405752182 ],
					"source" : [ "obj-12", 2 ]
				}

			}
, 			{
				"patchline" : 				{
					"destination" : [ "obj-38", 0 ],
					"midpoints" : [ 849.477843523025513, 433.98688405752182, 1009.307264566421509, 433.98688405752182 ],
					"source" : [ "obj-12", 3 ]
				}

			}
, 			{
				"patchline" : 				{
					"destination" : [ "obj-77", 0 ],
					"midpoints" : [ 874.560272932052612, 343.955279588699341, 926.969913423061371, 343.955279588699341, 926.969913423061371, 277.563467741012573, 979.379553914070129, 277.563467741012573 ],
					"source" : [ "obj-15", 0 ]
				}

			}
, 			{
				"patchline" : 				{
					"destination" : [ "obj-77", 0 ],
					"midpoints" : [ 814.469907879829407, 197.31180340051651, 979.379553914070129, 197.31180340051651 ],
					"source" : [ "obj-17", 0 ]
				}

			}
, 			{
				"patchline" : 				{
					"destination" : [ "obj-72", 0 ],
					"source" : [ "obj-173", 0 ]
				}

			}
, 			{
				"patchline" : 				{
					"destination" : [ "obj-184", 0 ],
					"midpoints" : [ 629.152536988258362, 317.099586486816406, 537.204919338226318, 317.099586486816406, 537.204919338226318, 76.234941005706787, 445.257301688194275, 76.234941005706787 ],
					"order" : 1,
					"source" : [ "obj-183", 0 ]
				}

			}
, 			{
				"patchline" : 				{
					"destination" : [ "obj-4", 0 ],
					"midpoints" : [ 629.152536988258362, 324.0, 675.419698596000671, 324.0 ],
					"order" : 0,
					"source" : [ "obj-183", 0 ]
				}

			}
, 			{
				"patchline" : 				{
					"destination" : [ "obj-185", 0 ],
					"midpoints" : [ 445.257301688194275, 120.884682357311249, 426.257301688194275, 120.884682357311249 ],
					"source" : [ "obj-184", 0 ]
				}

			}
, 			{
				"patchline" : 				{
					"destination" : [ "obj-53", 0 ],
					"midpoints" : [ 426.257301688194275, 174.033870875835419, 344.825733184814453, 174.033870875835419 ],
					"source" : [ "obj-185", 0 ]
				}

			}
, 			{
				"patchline" : 				{
					"color" : [ 0.0, 0.0, 0.0, 1.0 ],
					"destination" : [ "obj-14", 0 ],
					"source" : [ "obj-19", 1 ]
				}

			}
, 			{
				"patchline" : 				{
					"destination" : [ "obj-1", 0 ],
					"midpoints" : [ 344.825733184814453, 365.61584597826004, 366.306520462036133, 365.61584597826004 ],
					"source" : [ "obj-192", 0 ]
				}

			}
, 			{
				"patchline" : 				{
					"destination" : [ "obj-200", 0 ],
					"source" : [ "obj-197", 0 ]
				}

			}
, 			{
				"patchline" : 				{
					"color" : [ 0.0, 0.0, 0.0, 1.0 ],
					"destination" : [ "obj-48", 0 ],
					"source" : [ "obj-2", 0 ]
				}

			}
, 			{
				"patchline" : 				{
					"destination" : [ "obj-79", 0 ],
					"midpoints" : [ 954.078348159790039, 267.734948396682739, 914.319310545921326, 267.734948396682739, 914.319310545921326, 243.216876864433289, 874.560272932052612, 243.216876864433289 ],
					"source" : [ "obj-20", 0 ]
				}

			}
, 			{
				"patchline" : 				{
					"destination" : [ "obj-22", 1 ],
					"midpoints" : [ 356.440191149711609, 283.993986010551453, 510.879535436630249, 283.993986010551453 ],
					"source" : [ "obj-200", 0 ]
				}

			}
, 			{
				"patchline" : 				{
					"destination" : [ "obj-192", 0 ],
					"midpoints" : [ 479.379535436630249, 318.627892434597015, 344.825733184814453, 318.627892434597015 ],
					"source" : [ "obj-22", 0 ]
				}

			}
, 			{
				"patchline" : 				{
					"destination" : [ "obj-23", 0 ],
					"midpoints" : [ 489.879535436630249, 330.627892434597015, 440.879535436630249, 330.627892434597015 ],
					"source" : [ "obj-22", 1 ]
				}

			}
, 			{
				"patchline" : 				{
					"destination" : [ "obj-24", 0 ],
					"midpoints" : [ 500.379535436630249, 348.700182259082794, 469.740980863571167, 348.700182259082794 ],
					"source" : [ "obj-22", 2 ]
				}

			}
, 			{
				"patchline" : 				{
					"destination" : [ "obj-30", 0 ],
					"midpoints" : [ 510.879535436630249, 338.210855484008789, 574.471799612045288, 338.210855484008789 ],
					"source" : [ "obj-22", 3 ]
				}

			}
, 			{
				"patchline" : 				{
					"destination" : [ "obj-1", 0 ],
					"source" : [ "obj-23", 0 ]
				}

			}
, 			{
				"patchline" : 				{
					"destination" : [ "obj-1", 0 ],
					"midpoints" : [ 469.740980863571167, 415.629269361495972, 418.02375066280365, 415.629269361495972, 418.02375066280365, 375.747002243995667, 366.306520462036133, 375.747002243995667 ],
					"source" : [ "obj-24", 0 ]
				}

			}
, 			{
				"patchline" : 				{
					"color" : [ 0.0, 0.0, 0.0, 1.0 ],
					"destination" : [ "obj-19", 0 ],
					"source" : [ "obj-27", 0 ]
				}

			}
, 			{
				"patchline" : 				{
					"color" : [ 0.0, 0.0, 0.0, 1.0 ],
					"destination" : [ "obj-49", 0 ],
					"midpoints" : [ 517.306520462036133, 677.076274156570435, 283.306520462036133, 677.076274156570435 ],
					"source" : [ "obj-28", 0 ]
				}

			}
, 			{
				"patchline" : 				{
					"destination" : [ "obj-42", 1 ],
					"midpoints" : [ 366.306520462036133, 490.417644560337067, 332.306520462036133, 490.417644560337067 ],
					"source" : [ "obj-29", 0 ]
				}

			}
, 			{
				"patchline" : 				{
					"destination" : [ "obj-173", 0 ],
					"midpoints" : [ 720.387478470802307, 518.5789475440979, 862.911578774452096, 518.5789475440979 ],
					"source" : [ "obj-3", 0 ]
				}

			}
, 			{
				"patchline" : 				{
					"destination" : [ "obj-1", 0 ],
					"midpoints" : [ 574.471799612045288, 385.198809027671814, 366.306520462036133, 385.198809027671814 ],
					"source" : [ "obj-30", 0 ]
				}

			}
, 			{
				"patchline" : 				{
					"color" : [ 0.0, 0.0, 0.0, 1.0 ],
					"destination" : [ "obj-49", 0 ],
					"midpoints" : [ 586.639854907989502, 671.076274156570435, 283.306520462036133, 671.076274156570435 ],
					"source" : [ "obj-32", 0 ]
				}

			}
, 			{
				"patchline" : 				{
					"color" : [ 0.0, 0.0, 0.0, 1.0 ],
					"destination" : [ "obj-2", 0 ],
					"midpoints" : [ 139.306520462036133, 706.076274156570435, 283.306520462036133, 706.076274156570435 ],
					"order" : 0,
					"source" : [ "obj-33", 0 ]
				}

			}
, 			{
				"patchline" : 				{
					"color" : [ 0.0, 0.0, 0.0, 1.0 ],
					"destination" : [ "obj-49", 0 ],
					"midpoints" : [ 139.306520462036133, 671.076274156570435, 283.306520462036133, 671.076274156570435 ],
					"order" : 1,
					"source" : [ "obj-33", 0 ]
				}

			}
, 			{
				"patchline" : 				{
					"destination" : [ "obj-173", 0 ],
					"midpoints" : [ 817.977843523025513, 515.929960608482361, 862.911578774452096, 515.929960608482361 ],
					"source" : [ "obj-35", 0 ]
				}

			}
, 			{
				"patchline" : 				{
					"color" : [ 0.0, 0.0, 0.0, 1.0 ],
					"destination" : [ "obj-33", 0 ],
					"source" : [ "obj-36", 1 ]
				}

			}
, 			{
				"patchline" : 				{
					"destination" : [ "obj-173", 0 ],
					"midpoints" : [ 915.090391397476196, 518.580544769763947, 862.911578774452096, 518.580544769763947 ],
					"source" : [ "obj-37", 0 ]
				}

			}
, 			{
				"patchline" : 				{
					"destination" : [ "obj-173", 0 ],
					"midpoints" : [ 1009.307264566421509, 518.580544769763947, 862.911578774452096, 518.580544769763947 ],
					"source" : [ "obj-38", 0 ]
				}

			}
, 			{
				"patchline" : 				{
					"destination" : [ "obj-6", 0 ],
					"midpoints" : [ 675.419698596000671, 369.0, 723.176470756530762, 369.0, 723.176470756530762, 312.0, 746.849424839019775, 312.0 ],
					"source" : [ "obj-4", 0 ]
				}

			}
, 			{
				"patchline" : 				{
					"color" : [ 0.0, 0.0, 0.0, 1.0 ],
					"destination" : [ "obj-36", 0 ],
					"source" : [ "obj-40", 0 ]
				}

			}
, 			{
				"patchline" : 				{
					"color" : [ 0.0, 0.0, 0.0, 1.0 ],
					"destination" : [ "obj-40", 1 ],
					"source" : [ "obj-41", 0 ]
				}

			}
, 			{
				"patchline" : 				{
					"destination" : [ "obj-49", 0 ],
					"source" : [ "obj-42", 0 ]
				}

			}
, 			{
				"patchline" : 				{
					"color" : [ 0.0, 0.0, 0.0, 1.0 ],
					"destination" : [ "obj-47", 0 ],
					"midpoints" : [ 403.306520462036133, 631.076274156570435, 253.306520462036133, 631.076274156570435 ],
					"order" : 1,
					"source" : [ "obj-43", 0 ]
				}

			}
, 			{
				"patchline" : 				{
					"color" : [ 0.0, 0.0, 0.0, 1.0 ],
					"destination" : [ "obj-49", 0 ],
					"midpoints" : [ 403.306520462036133, 622.076274156570435, 283.306520462036133, 622.076274156570435 ],
					"order" : 0,
					"source" : [ "obj-43", 0 ]
				}

			}
, 			{
				"patchline" : 				{
					"color" : [ 0.0, 0.0, 0.0, 1.0 ],
					"destination" : [ "obj-49", 0 ],
					"midpoints" : [ 211.077610850334167, 613.076274156570435, 283.306520462036133, 613.076274156570435 ],
					"source" : [ "obj-45", 0 ]
				}

			}
, 			{
				"patchline" : 				{
					"color" : [ 0.0, 0.0, 0.0, 1.0 ],
					"destination" : [ "obj-49", 0 ],
					"source" : [ "obj-46", 0 ]
				}

			}
, 			{
				"patchline" : 				{
					"color" : [ 0.0, 0.0, 0.0, 1.0 ],
					"destination" : [ "obj-2", 0 ],
					"midpoints" : [ 253.306520462036133, 706.076274156570435, 283.306520462036133, 706.076274156570435 ],
					"source" : [ "obj-47", 0 ]
				}

			}
, 			{
				"patchline" : 				{
					"color" : [ 0.0, 0.0, 0.0, 1.0 ],
					"destination" : [ "obj-19", 1 ],
					"midpoints" : [ 364.306520462036133, 729.076274156570435, 520.306520462036133, 729.076274156570435 ],
					"source" : [ "obj-49", 1 ]
				}

			}
, 			{
				"patchline" : 				{
					"color" : [ 0.0, 0.0, 0.0, 1.0 ],
					"destination" : [ "obj-2", 0 ],
					"source" : [ "obj-49", 0 ]
				}

			}
, 			{
				"patchline" : 				{
					"destination" : [ "obj-183", 0 ],
					"midpoints" : [ 681.789181470870972, 262.467055141925812, 629.152536988258362, 262.467055141925812 ],
					"source" : [ "obj-50", 0 ]
				}

			}
, 			{
				"patchline" : 				{
					"destination" : [ "obj-10", 0 ],
					"midpoints" : [ 344.825733184814453, 236.379019767045975, 158.844663977622986, 236.379019767045975 ],
					"order" : 1,
					"source" : [ "obj-53", 0 ]
				}

			}
, 			{
				"patchline" : 				{
					"destination" : [ "obj-197", 0 ],
					"midpoints" : [ 344.825733184814453, 221.680287748575211, 380.764352321624756, 221.680287748575211 ],
					"order" : 0,
					"source" : [ "obj-53", 0 ]
				}

			}
, 			{
				"patchline" : 				{
					"destination" : [ "obj-50", 0 ],
					"order" : 2,
					"source" : [ "obj-59", 0 ]
				}

			}
, 			{
				"patchline" : 				{
					"destination" : [ "obj-8", 0 ],
					"order" : 0,
					"source" : [ "obj-59", 0 ]
				}

			}
, 			{
				"patchline" : 				{
					"destination" : [ "obj-9", 0 ],
					"midpoints" : [ 644.439782500267029, 218.098255068063736, 754.987323403358459, 218.098255068063736 ],
					"order" : 1,
					"source" : [ "obj-59", 0 ]
				}

			}
, 			{
				"patchline" : 				{
					"destination" : [ "obj-12", 1 ],
					"midpoints" : [ 746.849424839019775, 380.11667400598526, 849.477843523025513, 380.11667400598526 ],
					"source" : [ "obj-6", 0 ]
				}

			}
, 			{
				"patchline" : 				{
					"destination" : [ "obj-183", 0 ],
					"midpoints" : [ 746.849424839019775, 206.664253056049347, 629.152536988258362, 206.664253056049347 ],
					"source" : [ "obj-61", 0 ]
				}

			}
, 			{
				"patchline" : 				{
					"destination" : [ "obj-70", 1 ],
					"midpoints" : [ 951.911578774452096, 668.460683345794678, 877.911578774452096, 668.460683345794678 ],
					"source" : [ "obj-65", 1 ]
				}

			}
, 			{
				"patchline" : 				{
					"destination" : [ "obj-70", 0 ],
					"midpoints" : [ 862.911578774452096, 668.460683345794678, 862.911578774452096, 668.460683345794678 ],
					"source" : [ "obj-65", 0 ]
				}

			}
, 			{
				"patchline" : 				{
					"destination" : [ "obj-59", 0 ],
					"midpoints" : [ 607.221799612045288, 167.299033999443054, 644.439782500267029, 167.299033999443054 ],
					"order" : 0,
					"source" : [ "obj-66", 0 ]
				}

			}
, 			{
				"patchline" : 				{
					"destination" : [ "obj-76", 0 ],
					"midpoints" : [ 607.221799612045288, 167.299033999443054, 607.221799612045288, 167.299033999443054 ],
					"order" : 1,
					"source" : [ "obj-66", 0 ]
				}

			}
, 			{
				"patchline" : 				{
					"destination" : [ "obj-65", 0 ],
					"source" : [ "obj-72", 0 ]
				}

			}
, 			{
				"patchline" : 				{
					"destination" : [ "obj-49", 0 ],
					"midpoints" : [ 607.221799612045288, 444.722763419151306, 283.306520462036133, 444.722763419151306 ],
					"source" : [ "obj-76", 0 ]
				}

			}
, 			{
				"patchline" : 				{
					"destination" : [ "obj-12", 0 ],
					"midpoints" : [ 979.379553914070129, 335.721184551715851, 817.977843523025513, 335.721184551715851 ],
					"order" : 0,
					"source" : [ "obj-77", 0 ]
				}

			}
, 			{
				"patchline" : 				{
					"destination" : [ "obj-22", 0 ],
					"midpoints" : [ 979.379553914070129, 350.710525989532471, 729.379544675350189, 350.710525989532471, 729.379544675350189, 281.771095156669617, 479.379535436630249, 281.771095156669617 ],
					"order" : 1,
					"source" : [ "obj-77", 0 ]
				}

			}
, 			{
				"patchline" : 				{
					"destination" : [ "obj-15", 0 ],
					"source" : [ "obj-79", 0 ]
				}

			}
, 			{
				"patchline" : 				{
					"destination" : [ "obj-16", 0 ],
					"midpoints" : [ 869.560272932052612, 249.269695767164222, 817.977843523025513, 249.269695767164222 ],
					"source" : [ "obj-8", 0 ]
				}

			}
, 			{
				"patchline" : 				{
					"destination" : [ "obj-20", 0 ],
					"midpoints" : [ 925.560272932052612, 230.191475697755806, 954.078348159790039, 230.191475697755806 ],
					"source" : [ "obj-8", 3 ]
				}

			}
, 			{
				"patchline" : 				{
					"destination" : [ "obj-17", 0 ],
					"midpoints" : [ 563.306520462036133, 68.084947288036346, 814.469907879829407, 68.084947288036346 ],
					"order" : 0,
					"source" : [ "obj-82", 0 ]
				}

			}
, 			{
				"patchline" : 				{
					"destination" : [ "obj-45", 0 ],
					"midpoints" : [ 563.306520462036133, 269.625484555959702, 211.077610850334167, 269.625484555959702 ],
					"order" : 4,
					"source" : [ "obj-82", 0 ]
				}

			}
, 			{
				"patchline" : 				{
					"destination" : [ "obj-61", 0 ],
					"midpoints" : [ 563.306520462036133, 91.364459812641144, 746.849424839019775, 91.364459812641144 ],
					"order" : 2,
					"source" : [ "obj-82", 0 ]
				}

			}
, 			{
				"patchline" : 				{
					"destination" : [ "obj-66", 0 ],
					"midpoints" : [ 563.306520462036133, 101.364407658576965, 607.221799612045288, 101.364407658576965 ],
					"order" : 3,
					"source" : [ "obj-82", 0 ]
				}

			}
, 			{
				"patchline" : 				{
					"destination" : [ "obj-9", 3 ],
					"midpoints" : [ 563.306520462036133, 80.701495766639709, 792.487323403358459, 80.701495766639709 ],
					"order" : 1,
					"source" : [ "obj-82", 0 ]
				}

			}
, 			{
				"patchline" : 				{
					"destination" : [ "obj-6", 0 ],
					"midpoints" : [ 754.987323403358459, 282.860924392938614, 746.849424839019775, 282.860924392938614 ],
					"source" : [ "obj-9", 0 ]
				}

			}
 ],
		"dependency_cache" : [  ],
		"autosave" : 0
	}

}
